<?xml version="1.0" encoding="UTF-8" standalone="no"?>
<svg
   width="671.55206"
   height="498.61746"
   viewBox="0 0 479.68005 356.15534"
   version="1.1"
   id="svg8"
   inkscape:version="1.2 (dc2aedaf03, 2022-05-15)"
   sodipodi:docname="file.svg"
   xml:space="preserve"
   xmlns:inkscape="http://www.inkscape.org/namespaces/inkscape"
   xmlns:sodipodi="http://sodipodi.sourceforge.net/DTD/sodipodi-0.dtd"
   xmlns="http://www.w3.org/2000/svg"
   xmlns:svg="http://www.w3.org/2000/svg"
   xmlns:rdf="http://www.w3.org/1999/02/22-rdf-syntax-ns#"
   xmlns:cc="http://creativecommons.org/ns#"
   xmlns:dc="http://purl.org/dc/elements/1.1/"><defs
     id="defs2" /><sodipodi:namedview
     id="base"
     pagecolor="#ffffff"
     bordercolor="#666666"
     borderopacity="1.0"
     inkscape:pageopacity="0"
     inkscape:pageshadow="2"
     inkscape:zoom="0.9899495"
     inkscape:cx="319.2082"
     inkscape:cy="306.07622"
     inkscape:document-units="px"
     inkscape:current-layer="layer1"
     inkscape:document-rotation="0"
     showgrid="false"
     units="px"
     inkscape:pagecheckerboard="false"
     inkscape:showpageshadow="0"
     inkscape:deskcolor="#282828"
     showborder="true"
     inkscape:window-width="1680"
     inkscape:window-height="987"
     inkscape:window-x="-8"
     inkscape:window-y="-8"
     inkscape:window-maximized="1" /><metadata
     id="metadata5"><rdf:RDF><cc:Work
         rdf:about=""><dc:format>image/svg+xml</dc:format><dc:type
           rdf:resource="http://purl.org/dc/dcmitype/StillImage" /></cc:Work></rdf:RDF></metadata><g
     inkscape:label="Capa 1"
     inkscape:groupmode="layer"
     id="layer1"
     transform="translate(-730.1872,-406.07321)"><circle
       style="fill:#88c5cc;fill-opacity:1;stroke-width:2.74827;stroke-linecap:round;stroke-linejoin:round;paint-order:markers fill stroke"
       id="path1994"
       cx="969.78723"
       cy="507.68347"
       r="101.61026" /><g
       id="g962"
       transform="matrix(0.27423389,0,0,0.27423389,901.60227,441.42856)"><polygon
         style="fill:#ffffff"
         points="449.6,480 449.6,0 33.6,0 33.6,352 163.2,480 "
         id="polygon855" /><polyline
         style="fill:#e9f4f3"
         points="449.6,480 449.6,0 33.6,0 "
         id="polyline857" /><polyline
         style="fill:#d4e8e5"
         points="449.6,224 449.6,0 33.6,0 "
         id="polyline859" /><polygon
         style="fill:#d6e5e3"
         points="289.6,480.8 161.6,352 161.6,480 289.6,480 "
         id="polygon861" /><polygon
         style="fill:#8ac4bd"
         points="33.6,352 161.6,483.2 161.6,352 "
         id="polygon863" /><polygon
         style="fill:#67a59c"
         points="82.4,402.4 161.6,483.2 161.6,352 95.2,413.6 "
         id="polygon865" /><polygon
         style="fill:#1589ad"
         points="384.8,336.8 303.2,343.2 222.4,336.8 303.2,176.8 "
         id="polygon867" /><polyline
         style="fill:#035670"
         points="303.2,176.8 384.8,336.8 303.2,343.2 "
         id="polyline869" /><polygon
         style="fill:#1ea4c4"
         points="303.2,314.4 349.6,268 324,216.8 303.2,196 283.2,216.8 256.8,268 "
         id="polygon871" /><polyline
         style="fill:#066b93"
         points="303.2,314.4 349.6,268 324,216.8 303.2,196 "
         id="polyline873" /><polygon
         style="fill:#1589ad"
         points="338.4,332.8 218.4,343.2 98.4,332.8 218.4,97.6 "
         id="polygon875" /><polyline
         style="fill:#057091"
         points="218.4,97.6 338.4,332.8 218.4,343.2 "
         id="polyline877" /><polygon
         style="fill:#1ea4c4"
         points="218.4,300.8 286.4,232.8 248,156.8 218.4,126.4 188.8,156.8 149.6,232.8 "
         id="polygon879" /><polyline
         style="fill:#1290ad"
         points="218.4,300.8 286.4,232.8 248,156.8 218.4,126.4 "
         id="polyline881" /><polygon
         style="fill:#9adfef"
         points="237.6,214.4 257.6,234.4 277.6,214.4 218.4,97.6 159.2,214.4 179.2,234.4 199.2,214.4 218.4,234.4 "
         id="polygon883" /><polyline
         style="fill:#7dd4e2"
         points="218.4,234.4 237.6,214.4 257.6,234.4 277.6,214.4 218.4,97.6 "
         id="polyline885" /><rect
         x="97.599998"
         y="328"
         style="fill:#057091"
         width="288"
         height="16"
         id="rect887" /><circle
         style="fill:#f98d2b"
         cx="349.60001"
         cy="136"
         r="37.599998"
         id="circle889" /><path
         style="fill:#dd6e12"
         d="m 376.8,108.8 c 14.4,14.4 14.4,38.4 0,53.6 -14.4,15.2 -38.4,14.4 -53.6,0"
         id="path891" /><g
         id="g893">
</g><g
         id="g895">
</g><g
         id="g897">
</g><g
         id="g899">
</g><g
         id="g901">
</g><g
         id="g903">
</g><g
         id="g905">
</g><g
         id="g907">
</g><g
         id="g909">
</g><g
         id="g911">
</g><g
         id="g913">
</g><g
         id="g915">
</g><g
         id="g917">
</g><g
         id="g919">
</g><g
         id="g921">
</g></g><g
       id="g1999"
       transform="matrix(0.64441764,0,0,0.64441764,337.39502,132.85672)"><circle
         style="fill:#2179a6;fill-opacity:1;stroke-width:1.41823;stroke-linecap:round;stroke-linejoin:round;paint-order:markers fill stroke"
         id="path1419"
         cx="1052.4817"
         cy="681.68549"
         r="22.489166" /><rect
         style="fill:#ffffff;fill-opacity:1;stroke-width:1.42532;stroke-linecap:round;stroke-linejoin:round;paint-order:markers fill stroke"
         id="rect1812"
         width="2.8364718"
         height="28.754606"
         x="1051.0635"
         y="667.30817" /><rect
         style="fill:#ffffff;fill-opacity:1;stroke-width:1.42532;stroke-linecap:round;stroke-linejoin:round;paint-order:markers fill stroke"
         id="rect1812-9"
         width="2.8364718"
         height="28.754606"
         x="680.26721"
         y="-1066.859"
         transform="rotate(90)" /></g><text
       xml:space="preserve"
       style="font-weight:bold;font-size:40px;line-height:1.25;font-family:sans-serif;-inkscape-font-specification:'sans-serif Bold';letter-spacing:0px;word-spacing:0px;fill:#cfcfcf;fill-opacity:1"
       x="969.78723"
       y="711.82855"
       id="text1890"><tspan
         sodipodi:role="line"
         id="tspan1888"
         x="969.78723"
         y="711.82855"
         style="font-style:normal;font-variant:normal;font-weight:normal;font-stretch:normal;font-family:sans-serif;-inkscape-font-specification:sans-serif;text-align:center;text-anchor:middle;fill:#cfcfcf;fill-opacity:1">Arrastra una imagen aquí</tspan><tspan
         sodipodi:role="line"
         x="974.98724"
         y="761.82855"
         style="font-style:normal;font-variant:normal;font-weight:normal;font-stretch:normal;font-family:sans-serif;-inkscape-font-specification:sans-serif;fill:#cfcfcf;fill-opacity:1"
         id="tspan1711"><tspan
   style="text-align:center;text-anchor:middle"
   id="tspan2439">o haz clic</tspan> </tspan></text></g></svg>
